<svg xmlns="http://www.w3.org/2000/svg" width="128" height="128" viewBox="0 0 128 128" fill="none">
  <g clip-path="url(#clip0_6293_2551)">
    <path d="M128 0H0V128H128V0Z" fill="white"/>
    <path d="M38.0539 6.91931H34.5945V10.3788H38.0539V6.91931Z" fill="#101828"/>
    <path d="M48.4324 6.91931H44.9729V10.3788H48.4324V6.91931Z" fill="#101828"/>
    <path d="M51.8918 6.91931H48.4324V10.3788H51.8918V6.91931Z" fill="#101828"/>
    <path d="M55.3513 6.91931H51.8918V10.3788H55.3513V6.91931Z" fill="#101828"/>
    <path d="M62.2703 6.91931H58.8108V10.3788H62.2703V6.91931Z" fill="#101828"/>
    <path d="M72.6487 6.91931H69.1892V10.3788H72.6487V6.91931Z" fill="#101828"/>
    <path d="M89.946 6.91931H86.4866V10.3788H89.946V6.91931Z" fill="#101828"/>
    <path d="M41.5137 10.379H38.0542V13.8384H41.5137V10.379Z" fill="#101828"/>
    <path d="M44.9731 10.379H41.5137V13.8384H44.9731V10.379Z" fill="#101828"/>
    <path d="M48.4324 10.379H44.9729V13.8384H48.4324V10.379Z" fill="#101828"/>
    <path d="M51.8918 10.379H48.4324V13.8384H51.8918V10.379Z" fill="#101828"/>
    <path d="M55.3513 10.379H51.8918V13.8384H55.3513V10.379Z" fill="#101828"/>
    <path d="M58.8108 10.379H55.3513V13.8384H58.8108V10.379Z" fill="#101828"/>
    <path d="M72.6487 10.379H69.1892V13.8384H72.6487V10.379Z" fill="#101828"/>
    <path d="M76.1081 10.379H72.6487V13.8384H76.1081V10.379Z" fill="#101828"/>
    <path d="M44.9731 13.8386H41.5137V17.2981H44.9731V13.8386Z" fill="#101828"/>
    <path d="M51.8918 13.8386H48.4324V17.2981H51.8918V13.8386Z" fill="#101828"/>
    <path d="M58.8108 13.8386H55.3513V17.2981H58.8108V13.8386Z" fill="#101828"/>
    <path d="M62.2703 13.8386H58.8108V17.2981H62.2703V13.8386Z" fill="#101828"/>
    <path d="M65.7297 13.8386H62.2703V17.2981H65.7297V13.8386Z" fill="#101828"/>
    <path d="M69.1892 13.8386H65.7297V17.2981H69.1892V13.8386Z" fill="#101828"/>
    <path d="M72.6487 13.8386H69.1892V17.2981H72.6487V13.8386Z" fill="#101828"/>
    <path d="M76.1081 13.8386H72.6487V17.2981H76.1081V13.8386Z" fill="#101828"/>
    <path d="M83.0272 13.8386H79.5676V17.2981H83.0272V13.8386Z" fill="#101828"/>
    <path d="M89.946 13.8386H86.4866V17.2981H89.946V13.8386Z" fill="#101828"/>
    <path d="M38.0539 17.2983H34.5945V20.7578H38.0539V17.2983Z" fill="#101828"/>
    <path d="M41.5137 17.2983H38.0542V20.7578H41.5137V17.2983Z" fill="#101828"/>
    <path d="M48.4324 17.2983H44.9729V20.7578H48.4324V17.2983Z" fill="#101828"/>
    <path d="M51.8918 17.2983H48.4324V20.7578H51.8918V17.2983Z" fill="#101828"/>
    <path d="M65.7297 17.2983H62.2703V20.7578H65.7297V17.2983Z" fill="#101828"/>
    <path d="M69.1892 17.2983H65.7297V20.7578H69.1892V17.2983Z" fill="#101828"/>
    <path d="M83.0272 17.2983H79.5676V20.7578H83.0272V17.2983Z" fill="#101828"/>
    <path d="M86.4864 17.2983H83.0271V20.7578H86.4864V17.2983Z" fill="#101828"/>
    <path d="M38.0539 20.7567H34.5945V24.2161H38.0539V20.7567Z" fill="#101828"/>
    <path d="M41.5137 20.7567H38.0542V24.2161H41.5137V20.7567Z" fill="#101828"/>
    <path d="M65.7297 20.7567H62.2703V24.2161H65.7297V20.7567Z" fill="#101828"/>
    <path d="M69.1892 20.7567H65.7297V24.2161H69.1892V20.7567Z" fill="#101828"/>
    <path d="M76.1081 20.7567H72.6487V24.2161H76.1081V20.7567Z" fill="#101828"/>
    <path d="M83.0272 20.7567H79.5676V24.2161H83.0272V20.7567Z" fill="#101828"/>
    <path d="M86.4864 20.7567H83.0271V24.2161H86.4864V20.7567Z" fill="#101828"/>
    <path d="M38.0539 24.2164H34.5945V27.6758H38.0539V24.2164Z" fill="#101828"/>
    <path d="M41.5137 24.2164H38.0542V27.6758H41.5137V24.2164Z" fill="#101828"/>
    <path d="M44.9731 24.2164H41.5137V27.6758H44.9731V24.2164Z" fill="#101828"/>
    <path d="M51.8918 24.2164H48.4324V27.6758H51.8918V24.2164Z" fill="#101828"/>
    <path d="M62.2703 24.2164H58.8108V27.6758H62.2703V24.2164Z" fill="#101828"/>
    <path d="M69.1892 24.2164H65.7297V27.6758H69.1892V24.2164Z" fill="#101828"/>
    <path d="M79.5676 24.2164H76.1082V27.6758H79.5676V24.2164Z" fill="#101828"/>
    <path d="M83.0272 24.2164H79.5676V27.6758H83.0272V24.2164Z" fill="#101828"/>
    <path d="M86.4864 24.2164H83.0271V27.6758H86.4864V24.2164Z" fill="#101828"/>
    <path d="M89.946 24.2164H86.4866V27.6758H89.946V24.2164Z" fill="#101828"/>
    <path d="M93.4055 24.2164H89.946V27.6758H93.4055V24.2164Z" fill="#101828"/>
    <path d="M38.0539 27.676H34.5945V31.1355H38.0539V27.676Z" fill="#101828"/>
    <path d="M44.9731 27.676H41.5137V31.1355H44.9731V27.676Z" fill="#101828"/>
    <path d="M51.8918 27.676H48.4324V31.1355H51.8918V27.676Z" fill="#101828"/>
    <path d="M58.8108 27.676H55.3513V31.1355H58.8108V27.676Z" fill="#101828"/>
    <path d="M65.7297 27.676H62.2703V31.1355H65.7297V27.676Z" fill="#101828"/>
    <path d="M72.6487 27.676H69.1892V31.1355H72.6487V27.676Z" fill="#101828"/>
    <path d="M79.5676 27.676H76.1082V31.1355H79.5676V27.676Z" fill="#101828"/>
    <path d="M86.4864 27.676H83.0271V31.1355H86.4864V27.676Z" fill="#101828"/>
    <path d="M93.4055 27.676H89.946V31.1355H93.4055V27.676Z" fill="#101828"/>
    <path d="M38.0539 31.1357H34.5945V34.5951H38.0539V31.1357Z" fill="#101828"/>
    <path d="M48.4324 31.1357H44.9729V34.5951H48.4324V31.1357Z" fill="#101828"/>
    <path d="M58.8108 31.1357H55.3513V34.5951H58.8108V31.1357Z" fill="#101828"/>
    <path d="M69.1892 31.1357H65.7297V34.5951H69.1892V31.1357Z" fill="#101828"/>
    <path d="M72.6487 31.1357H69.1892V34.5951H72.6487V31.1357Z" fill="#101828"/>
    <path d="M76.1081 31.1357H72.6487V34.5951H76.1081V31.1357Z" fill="#101828"/>
    <path d="M79.5676 31.1357H76.1082V34.5951H79.5676V31.1357Z" fill="#101828"/>
    <path d="M83.0272 31.1357H79.5676V34.5951H83.0272V31.1357Z" fill="#101828"/>
    <path d="M93.4055 31.1357H89.946V34.5951H93.4055V31.1357Z" fill="#101828"/>
    <path d="M10.3784 34.5953H6.91895V38.0548H10.3784V34.5953Z" fill="#101828"/>
    <path d="M24.2163 34.5953H20.7568V38.0548H24.2163V34.5953Z" fill="#101828"/>
    <path d="M31.1352 34.5953H27.6758V38.0548H31.1352V34.5953Z" fill="#101828"/>
    <path d="M34.5947 34.5953H31.1353V38.0548H34.5947V34.5953Z" fill="#101828"/>
    <path d="M38.0539 34.5953H34.5945V38.0548H38.0539V34.5953Z" fill="#101828"/>
    <path d="M44.9731 34.5953H41.5137V38.0548H44.9731V34.5953Z" fill="#101828"/>
    <path d="M51.8918 34.5953H48.4324V38.0548H51.8918V34.5953Z" fill="#101828"/>
    <path d="M62.2703 34.5953H58.8108V38.0548H62.2703V34.5953Z" fill="#101828"/>
    <path d="M69.1892 34.5953H65.7297V38.0548H69.1892V34.5953Z" fill="#101828"/>
    <path d="M79.5676 34.5953H76.1082V38.0548H79.5676V34.5953Z" fill="#101828"/>
    <path d="M83.0272 34.5953H79.5676V38.0548H83.0272V34.5953Z" fill="#101828"/>
    <path d="M86.4864 34.5953H83.0271V38.0548H86.4864V34.5953Z" fill="#101828"/>
    <path d="M89.946 34.5953H86.4866V38.0548H89.946V34.5953Z" fill="#101828"/>
    <path d="M96.865 34.5953H93.4055V38.0548H96.865V34.5953Z" fill="#101828"/>
    <path d="M100.324 34.5953H96.865V38.0548H100.324V34.5953Z" fill="#101828"/>
    <path d="M103.784 34.5953H100.324V38.0548H103.784V34.5953Z" fill="#101828"/>
    <path d="M107.243 34.5953H103.784V38.0548H107.243V34.5953Z" fill="#101828"/>
    <path d="M110.703 34.5953H107.243V38.0548H110.703V34.5953Z" fill="#101828"/>
    <path d="M121.081 34.5953H117.622V38.0548H121.081V34.5953Z" fill="#101828"/>
    <path d="M13.8379 38.0551H10.3784V41.5146H13.8379V38.0551Z" fill="#101828"/>
    <path d="M27.6758 38.0551H24.2163V41.5146H27.6758V38.0551Z" fill="#101828"/>
    <path d="M34.5947 38.0551H31.1353V41.5146H34.5947V38.0551Z" fill="#101828"/>
    <path d="M44.9731 38.0551H41.5137V41.5146H44.9731V38.0551Z" fill="#101828"/>
    <path d="M48.4324 38.0551H44.9729V41.5146H48.4324V38.0551Z" fill="#101828"/>
    <path d="M62.2703 38.0551H58.8108V41.5146H62.2703V38.0551Z" fill="#101828"/>
    <path d="M65.7297 38.0551H62.2703V41.5146H65.7297V38.0551Z" fill="#101828"/>
    <path d="M69.1892 38.0551H65.7297V41.5146H69.1892V38.0551Z" fill="#101828"/>
    <path d="M72.6487 38.0551H69.1892V41.5146H72.6487V38.0551Z" fill="#101828"/>
    <path d="M83.0272 38.0551H79.5676V41.5146H83.0272V38.0551Z" fill="#101828"/>
    <path d="M86.4864 38.0551H83.0271V41.5146H86.4864V38.0551Z" fill="#101828"/>
    <path d="M89.946 38.0551H86.4866V41.5146H89.946V38.0551Z" fill="#101828"/>
    <path d="M96.865 38.0551H93.4055V41.5146H96.865V38.0551Z" fill="#101828"/>
    <path d="M110.703 38.0551H107.243V41.5146H110.703V38.0551Z" fill="#101828"/>
    <path d="M114.162 38.0551H110.703V41.5146H114.162V38.0551Z" fill="#101828"/>
    <path d="M121.081 38.0551H117.622V41.5146H121.081V38.0551Z" fill="#101828"/>
    <path d="M10.3784 41.5134H6.91895V44.9728H10.3784V41.5134Z" fill="#101828"/>
    <path d="M17.2973 41.5134H13.8379V44.9728H17.2973V41.5134Z" fill="#101828"/>
    <path d="M24.2163 41.5134H20.7568V44.9728H24.2163V41.5134Z" fill="#101828"/>
    <path d="M27.6758 41.5134H24.2163V44.9728H27.6758V41.5134Z" fill="#101828"/>
    <path d="M31.1352 41.5134H27.6758V44.9728H31.1352V41.5134Z" fill="#101828"/>
    <path d="M34.5947 41.5134H31.1353V44.9728H34.5947V41.5134Z" fill="#101828"/>
    <path d="M38.0539 41.5134H34.5945V44.9728H38.0539V41.5134Z" fill="#101828"/>
    <path d="M55.3513 41.5134H51.8918V44.9728H55.3513V41.5134Z" fill="#101828"/>
    <path d="M58.8108 41.5134H55.3513V44.9728H58.8108V41.5134Z" fill="#101828"/>
    <path d="M62.2703 41.5134H58.8108V44.9728H62.2703V41.5134Z" fill="#101828"/>
    <path d="M72.6487 41.5134H69.1892V44.9728H72.6487V41.5134Z" fill="#101828"/>
    <path d="M89.946 41.5134H86.4866V44.9728H89.946V41.5134Z" fill="#101828"/>
    <path d="M96.865 41.5134H93.4055V44.9728H96.865V41.5134Z" fill="#101828"/>
    <path d="M110.703 41.5134H107.243V44.9728H110.703V41.5134Z" fill="#101828"/>
    <path d="M117.622 41.5134H114.162V44.9728H117.622V41.5134Z" fill="#101828"/>
    <path d="M17.2973 44.9731H13.8379V48.4325H17.2973V44.9731Z" fill="#101828"/>
    <path d="M24.2163 44.9731H20.7568V48.4325H24.2163V44.9731Z" fill="#101828"/>
    <path d="M34.5947 44.9731H31.1353V48.4325H34.5947V44.9731Z" fill="#101828"/>
    <path d="M44.9731 44.9731H41.5137V48.4325H44.9731V44.9731Z" fill="#101828"/>
    <path d="M51.8918 44.9731H48.4324V48.4325H51.8918V44.9731Z" fill="#101828"/>
    <path d="M55.3513 44.9731H51.8918V48.4325H55.3513V44.9731Z" fill="#101828"/>
    <path d="M65.7297 44.9731H62.2703V48.4325H65.7297V44.9731Z" fill="#101828"/>
    <path d="M76.1081 44.9731H72.6487V48.4325H76.1081V44.9731Z" fill="#101828"/>
    <path d="M79.5676 44.9731H76.1082V48.4325H79.5676V44.9731Z" fill="#101828"/>
    <path d="M86.4864 44.9731H83.0271V48.4325H86.4864V44.9731Z" fill="#101828"/>
    <path d="M93.4055 44.9731H89.946V48.4325H93.4055V44.9731Z" fill="#101828"/>
    <path d="M96.865 44.9731H93.4055V48.4325H96.865V44.9731Z" fill="#101828"/>
    <path d="M100.324 44.9731H96.865V48.4325H100.324V44.9731Z" fill="#101828"/>
    <path d="M10.3784 48.4327H6.91895V51.8922H10.3784V48.4327Z" fill="#101828"/>
    <path d="M17.2973 48.4327H13.8379V51.8922H17.2973V48.4327Z" fill="#101828"/>
    <path d="M20.7569 48.4327H17.2974V51.8922H20.7569V48.4327Z" fill="#101828"/>
    <path d="M31.1352 48.4327H27.6758V51.8922H31.1352V48.4327Z" fill="#101828"/>
    <path d="M38.0539 48.4327H34.5945V51.8922H38.0539V48.4327Z" fill="#101828"/>
    <path d="M44.9731 48.4327H41.5137V51.8922H44.9731V48.4327Z" fill="#101828"/>
    <path d="M51.8918 48.4327H48.4324V51.8922H51.8918V48.4327Z" fill="#101828"/>
    <path d="M55.3513 48.4327H51.8918V51.8922H55.3513V48.4327Z" fill="#101828"/>
    <path d="M65.7297 48.4327H62.2703V51.8922H65.7297V48.4327Z" fill="#101828"/>
    <path d="M86.4864 48.4327H83.0271V51.8922H86.4864V48.4327Z" fill="#101828"/>
    <path d="M89.946 48.4327H86.4866V51.8922H89.946V48.4327Z" fill="#101828"/>
    <path d="M93.4055 48.4327H89.946V51.8922H93.4055V48.4327Z" fill="#101828"/>
    <path d="M100.324 48.4327H96.865V51.8922H100.324V48.4327Z" fill="#101828"/>
    <path d="M103.784 48.4327H100.324V51.8922H103.784V48.4327Z" fill="#101828"/>
    <path d="M110.703 48.4327H107.243V51.8922H110.703V48.4327Z" fill="#101828"/>
    <path d="M121.081 48.4327H117.622V51.8922H121.081V48.4327Z" fill="#101828"/>
    <path d="M10.3784 51.8924H6.91895V55.3519H10.3784V51.8924Z" fill="#101828"/>
    <path d="M17.2973 51.8924H13.8379V55.3519H17.2973V51.8924Z" fill="#101828"/>
    <path d="M20.7569 51.8924H17.2974V55.3519H20.7569V51.8924Z" fill="#101828"/>
    <path d="M24.2163 51.8924H20.7568V55.3519H24.2163V51.8924Z" fill="#101828"/>
    <path d="M27.6758 51.8924H24.2163V55.3519H27.6758V51.8924Z" fill="#101828"/>
    <path d="M34.5947 51.8924H31.1353V55.3519H34.5947V51.8924Z" fill="#101828"/>
    <path d="M44.9731 51.8924H41.5137V55.3519H44.9731V51.8924Z" fill="#101828"/>
    <path d="M48.4324 51.8924H44.9729V55.3519H48.4324V51.8924Z" fill="#101828"/>
    <path d="M58.8108 51.8924H55.3513V55.3519H58.8108V51.8924Z" fill="#101828"/>
    <path d="M69.1892 51.8924H65.7297V55.3519H69.1892V51.8924Z" fill="#101828"/>
    <path d="M72.6487 51.8924H69.1892V55.3519H72.6487V51.8924Z" fill="#101828"/>
    <path d="M76.1081 51.8924H72.6487V55.3519H76.1081V51.8924Z" fill="#101828"/>
    <path d="M79.5676 51.8924H76.1082V55.3519H79.5676V51.8924Z" fill="#101828"/>
    <path d="M93.4055 51.8924H89.946V55.3519H93.4055V51.8924Z" fill="#101828"/>
    <path d="M96.865 51.8924H93.4055V55.3519H96.865V51.8924Z" fill="#101828"/>
    <path d="M103.784 51.8924H100.324V55.3519H103.784V51.8924Z" fill="#101828"/>
    <path d="M114.162 51.8924H110.703V55.3519H114.162V51.8924Z" fill="#101828"/>
    <path d="M17.2973 55.3521H13.8379V58.8116H17.2973V55.3521Z" fill="#101828"/>
    <path d="M24.2163 55.3521H20.7568V58.8116H24.2163V55.3521Z" fill="#101828"/>
    <path d="M27.6758 55.3521H24.2163V58.8116H27.6758V55.3521Z" fill="#101828"/>
    <path d="M31.1352 55.3521H27.6758V58.8116H31.1352V55.3521Z" fill="#101828"/>
    <path d="M44.9731 55.3521H41.5137V58.8116H44.9731V55.3521Z" fill="#101828"/>
    <path d="M48.4324 55.3521H44.9729V58.8116H48.4324V55.3521Z" fill="#101828"/>
    <path d="M51.8918 55.3521H48.4324V58.8116H51.8918V55.3521Z" fill="#101828"/>
    <path d="M58.8108 55.3521H55.3513V58.8116H58.8108V55.3521Z" fill="#101828"/>
    <path d="M62.2703 55.3521H58.8108V58.8116H62.2703V55.3521Z" fill="#101828"/>
    <path d="M69.1892 55.3521H65.7297V58.8116H69.1892V55.3521Z" fill="#101828"/>
    <path d="M72.6487 55.3521H69.1892V58.8116H72.6487V55.3521Z" fill="#101828"/>
    <path d="M79.5676 55.3521H76.1082V58.8116H79.5676V55.3521Z" fill="#101828"/>
    <path d="M83.0272 55.3521H79.5676V58.8116H83.0272V55.3521Z" fill="#101828"/>
    <path d="M89.946 55.3521H86.4866V58.8116H89.946V55.3521Z" fill="#101828"/>
    <path d="M93.4055 55.3521H89.946V58.8116H93.4055V55.3521Z" fill="#101828"/>
    <path d="M96.865 55.3521H93.4055V58.8116H96.865V55.3521Z" fill="#101828"/>
    <path d="M100.324 55.3521H96.865V58.8116H100.324V55.3521Z" fill="#101828"/>
    <path d="M107.243 55.3521H103.784V58.8116H107.243V55.3521Z" fill="#101828"/>
    <path d="M117.622 55.3521H114.162V58.8116H117.622V55.3521Z" fill="#101828"/>
    <path d="M10.3784 58.8118H6.91895V62.2712H10.3784V58.8118Z" fill="#101828"/>
    <path d="M13.8379 58.8118H10.3784V62.2712H13.8379V58.8118Z" fill="#101828"/>
    <path d="M17.2973 58.8118H13.8379V62.2712H17.2973V58.8118Z" fill="#101828"/>
    <path d="M20.7569 58.8118H17.2974V62.2712H20.7569V58.8118Z" fill="#101828"/>
    <path d="M24.2163 58.8118H20.7568V62.2712H24.2163V58.8118Z" fill="#101828"/>
    <path d="M34.5947 58.8118H31.1353V62.2712H34.5947V58.8118Z" fill="#101828"/>
    <path d="M44.9731 58.8118H41.5137V62.2712H44.9731V58.8118Z" fill="#101828"/>
    <path d="M48.4324 58.8118H44.9729V62.2712H48.4324V58.8118Z" fill="#101828"/>
    <path d="M55.3513 58.8118H51.8918V62.2712H55.3513V58.8118Z" fill="#101828"/>
    <path d="M58.8108 58.8118H55.3513V62.2712H58.8108V58.8118Z" fill="#101828"/>
    <path d="M62.2703 58.8118H58.8108V62.2712H62.2703V58.8118Z" fill="#101828"/>
    <path d="M65.7297 58.8118H62.2703V62.2712H65.7297V58.8118Z" fill="#101828"/>
    <path d="M69.1892 58.8118H65.7297V62.2712H69.1892V58.8118Z" fill="#101828"/>
    <path d="M72.6487 58.8118H69.1892V62.2712H72.6487V58.8118Z" fill="#101828"/>
    <path d="M83.0272 58.8118H79.5676V62.2712H83.0272V58.8118Z" fill="#101828"/>
    <path d="M89.946 58.8118H86.4866V62.2712H89.946V58.8118Z" fill="#101828"/>
    <path d="M96.865 58.8118H93.4055V62.2712H96.865V58.8118Z" fill="#101828"/>
    <path d="M100.324 58.8118H96.865V62.2712H100.324V58.8118Z" fill="#101828"/>
    <path d="M103.784 58.8118H100.324V62.2712H103.784V58.8118Z" fill="#101828"/>
    <path d="M10.3784 62.2701H6.91895V65.7296H10.3784V62.2701Z" fill="#101828"/>
    <path d="M13.8379 62.2701H10.3784V65.7296H13.8379V62.2701Z" fill="#101828"/>
    <path d="M20.7569 62.2701H17.2974V65.7296H20.7569V62.2701Z" fill="#101828"/>
    <path d="M24.2163 62.2701H20.7568V65.7296H24.2163V62.2701Z" fill="#101828"/>
    <path d="M27.6758 62.2701H24.2163V65.7296H27.6758V62.2701Z" fill="#101828"/>
    <path d="M31.1352 62.2701H27.6758V65.7296H31.1352V62.2701Z" fill="#101828"/>
    <path d="M38.0539 62.2701H34.5945V65.7296H38.0539V62.2701Z" fill="#101828"/>
    <path d="M41.5137 62.2701H38.0542V65.7296H41.5137V62.2701Z" fill="#101828"/>
    <path d="M51.8918 62.2701H48.4324V65.7296H51.8918V62.2701Z" fill="#101828"/>
    <path d="M69.1892 62.2701H65.7297V65.7296H69.1892V62.2701Z" fill="#101828"/>
    <path d="M72.6487 62.2701H69.1892V65.7296H72.6487V62.2701Z" fill="#101828"/>
    <path d="M76.1081 62.2701H72.6487V65.7296H76.1081V62.2701Z" fill="#101828"/>
    <path d="M79.5676 62.2701H76.1082V65.7296H79.5676V62.2701Z" fill="#101828"/>
    <path d="M83.0272 62.2701H79.5676V65.7296H83.0272V62.2701Z" fill="#101828"/>
    <path d="M86.4864 62.2701H83.0271V65.7296H86.4864V62.2701Z" fill="#101828"/>
    <path d="M93.4055 62.2701H89.946V65.7296H93.4055V62.2701Z" fill="#101828"/>
    <path d="M100.324 62.2701H96.865V65.7296H100.324V62.2701Z" fill="#101828"/>
    <path d="M107.243 62.2701H103.784V65.7296H107.243V62.2701Z" fill="#101828"/>
    <path d="M110.703 62.2701H107.243V65.7296H110.703V62.2701Z" fill="#101828"/>
    <path d="M117.622 62.2701H114.162V65.7296H117.622V62.2701Z" fill="#101828"/>
    <path d="M10.3784 65.7298H6.91895V69.1893H10.3784V65.7298Z" fill="#101828"/>
    <path d="M13.8379 65.7298H10.3784V69.1893H13.8379V65.7298Z" fill="#101828"/>
    <path d="M24.2163 65.7298H20.7568V69.1893H24.2163V65.7298Z" fill="#101828"/>
    <path d="M27.6758 65.7298H24.2163V69.1893H27.6758V65.7298Z" fill="#101828"/>
    <path d="M34.5947 65.7298H31.1353V69.1893H34.5947V65.7298Z" fill="#101828"/>
    <path d="M38.0539 65.7298H34.5945V69.1893H38.0539V65.7298Z" fill="#101828"/>
    <path d="M41.5137 65.7298H38.0542V69.1893H41.5137V65.7298Z" fill="#101828"/>
    <path d="M44.9731 65.7298H41.5137V69.1893H44.9731V65.7298Z" fill="#101828"/>
    <path d="M62.2703 65.7298H58.8108V69.1893H62.2703V65.7298Z" fill="#101828"/>
    <path d="M65.7297 65.7298H62.2703V69.1893H65.7297V65.7298Z" fill="#101828"/>
    <path d="M72.6487 65.7298H69.1892V69.1893H72.6487V65.7298Z" fill="#101828"/>
    <path d="M79.5676 65.7298H76.1082V69.1893H79.5676V65.7298Z" fill="#101828"/>
    <path d="M86.4864 65.7298H83.0271V69.1893H86.4864V65.7298Z" fill="#101828"/>
    <path d="M89.946 65.7298H86.4866V69.1893H89.946V65.7298Z" fill="#101828"/>
    <path d="M93.4055 65.7298H89.946V69.1893H93.4055V65.7298Z" fill="#101828"/>
    <path d="M110.703 65.7298H107.243V69.1893H110.703V65.7298Z" fill="#101828"/>
    <path d="M114.162 65.7298H110.703V69.1893H114.162V65.7298Z" fill="#101828"/>
    <path d="M117.622 65.7298H114.162V69.1893H117.622V65.7298Z" fill="#101828"/>
    <path d="M10.3784 69.1895H6.91895V72.6489H10.3784V69.1895Z" fill="#101828"/>
    <path d="M17.2973 69.1895H13.8379V72.6489H17.2973V69.1895Z" fill="#101828"/>
    <path d="M20.7569 69.1895H17.2974V72.6489H20.7569V69.1895Z" fill="#101828"/>
    <path d="M24.2163 69.1895H20.7568V72.6489H24.2163V69.1895Z" fill="#101828"/>
    <path d="M31.1352 69.1895H27.6758V72.6489H31.1352V69.1895Z" fill="#101828"/>
    <path d="M34.5947 69.1895H31.1353V72.6489H34.5947V69.1895Z" fill="#101828"/>
    <path d="M44.9731 69.1895H41.5137V72.6489H44.9731V69.1895Z" fill="#101828"/>
    <path d="M51.8918 69.1895H48.4324V72.6489H51.8918V69.1895Z" fill="#101828"/>
    <path d="M55.3513 69.1895H51.8918V72.6489H55.3513V69.1895Z" fill="#101828"/>
    <path d="M62.2703 69.1895H58.8108V72.6489H62.2703V69.1895Z" fill="#101828"/>
    <path d="M65.7297 69.1895H62.2703V72.6489H65.7297V69.1895Z" fill="#101828"/>
    <path d="M69.1892 69.1895H65.7297V72.6489H69.1892V69.1895Z" fill="#101828"/>
    <path d="M79.5676 69.1895H76.1082V72.6489H79.5676V69.1895Z" fill="#101828"/>
    <path d="M83.0272 69.1895H79.5676V72.6489H83.0272V69.1895Z" fill="#101828"/>
    <path d="M86.4864 69.1895H83.0271V72.6489H86.4864V69.1895Z" fill="#101828"/>
    <path d="M89.946 69.1895H86.4866V72.6489H89.946V69.1895Z" fill="#101828"/>
    <path d="M93.4055 69.1895H89.946V72.6489H93.4055V69.1895Z" fill="#101828"/>
    <path d="M96.865 69.1895H93.4055V72.6489H96.865V69.1895Z" fill="#101828"/>
    <path d="M103.784 69.1895H100.324V72.6489H103.784V69.1895Z" fill="#101828"/>
    <path d="M110.703 69.1895H107.243V72.6489H110.703V69.1895Z" fill="#101828"/>
    <path d="M117.622 69.1895H114.162V72.6489H117.622V69.1895Z" fill="#101828"/>
    <path d="M13.8379 72.6492H10.3784V76.1086H13.8379V72.6492Z" fill="#101828"/>
    <path d="M17.2973 72.6492H13.8379V76.1086H17.2973V72.6492Z" fill="#101828"/>
    <path d="M24.2163 72.6492H20.7568V76.1086H24.2163V72.6492Z" fill="#101828"/>
    <path d="M34.5947 72.6492H31.1353V76.1086H34.5947V72.6492Z" fill="#101828"/>
    <path d="M44.9731 72.6492H41.5137V76.1086H44.9731V72.6492Z" fill="#101828"/>
    <path d="M51.8918 72.6492H48.4324V76.1086H51.8918V72.6492Z" fill="#101828"/>
    <path d="M55.3513 72.6492H51.8918V76.1086H55.3513V72.6492Z" fill="#101828"/>
    <path d="M62.2703 72.6492H58.8108V76.1086H62.2703V72.6492Z" fill="#101828"/>
    <path d="M69.1892 72.6492H65.7297V76.1086H69.1892V72.6492Z" fill="#101828"/>
    <path d="M72.6487 72.6492H69.1892V76.1086H72.6487V72.6492Z" fill="#101828"/>
    <path d="M79.5676 72.6492H76.1082V76.1086H79.5676V72.6492Z" fill="#101828"/>
    <path d="M83.0272 72.6492H79.5676V76.1086H83.0272V72.6492Z" fill="#101828"/>
    <path d="M93.4055 72.6492H89.946V76.1086H93.4055V72.6492Z" fill="#101828"/>
    <path d="M96.865 72.6492H93.4055V76.1086H96.865V72.6492Z" fill="#101828"/>
    <path d="M100.324 72.6492H96.865V76.1086H100.324V72.6492Z" fill="#101828"/>
    <path d="M103.784 72.6492H100.324V76.1086H103.784V72.6492Z" fill="#101828"/>
    <path d="M117.622 72.6492H114.162V76.1086H117.622V72.6492Z" fill="#101828"/>
    <path d="M10.3784 76.1088H6.91895V79.5683H10.3784V76.1088Z" fill="#101828"/>
    <path d="M17.2973 76.1088H13.8379V79.5683H17.2973V76.1088Z" fill="#101828"/>
    <path d="M27.6758 76.1088H24.2163V79.5683H27.6758V76.1088Z" fill="#101828"/>
    <path d="M31.1352 76.1088H27.6758V79.5683H31.1352V76.1088Z" fill="#101828"/>
    <path d="M34.5947 76.1088H31.1353V79.5683H34.5947V76.1088Z" fill="#101828"/>
    <path d="M41.5137 76.1088H38.0542V79.5683H41.5137V76.1088Z" fill="#101828"/>
    <path d="M48.4324 76.1088H44.9729V79.5683H48.4324V76.1088Z" fill="#101828"/>
    <path d="M55.3513 76.1088H51.8918V79.5683H55.3513V76.1088Z" fill="#101828"/>
    <path d="M58.8108 76.1088H55.3513V79.5683H58.8108V76.1088Z" fill="#101828"/>
    <path d="M72.6487 76.1088H69.1892V79.5683H72.6487V76.1088Z" fill="#101828"/>
    <path d="M76.1081 76.1088H72.6487V79.5683H76.1081V76.1088Z" fill="#101828"/>
    <path d="M79.5676 76.1088H76.1082V79.5683H79.5676V76.1088Z" fill="#101828"/>
    <path d="M100.324 76.1088H96.865V79.5683H100.324V76.1088Z" fill="#101828"/>
    <path d="M103.784 76.1088H100.324V79.5683H103.784V76.1088Z" fill="#101828"/>
    <path d="M107.243 76.1088H103.784V79.5683H107.243V76.1088Z" fill="#101828"/>
    <path d="M110.703 76.1088H107.243V79.5683H110.703V76.1088Z" fill="#101828"/>
    <path d="M10.3784 79.5685H6.91895V83.0281H10.3784V79.5685Z" fill="#101828"/>
    <path d="M20.7569 79.5685H17.2974V83.0281H20.7569V79.5685Z" fill="#101828"/>
    <path d="M27.6758 79.5685H24.2163V83.0281H27.6758V79.5685Z" fill="#101828"/>
    <path d="M51.8918 79.5685H48.4324V83.0281H51.8918V79.5685Z" fill="#101828"/>
    <path d="M65.7297 79.5685H62.2703V83.0281H65.7297V79.5685Z" fill="#101828"/>
    <path d="M69.1892 79.5685H65.7297V83.0281H69.1892V79.5685Z" fill="#101828"/>
    <path d="M76.1081 79.5685H72.6487V83.0281H76.1081V79.5685Z" fill="#101828"/>
    <path d="M86.4864 79.5685H83.0271V83.0281H86.4864V79.5685Z" fill="#101828"/>
    <path d="M100.324 79.5685H96.865V83.0281H100.324V79.5685Z" fill="#101828"/>
    <path d="M110.703 79.5685H107.243V83.0281H110.703V79.5685Z" fill="#101828"/>
    <path d="M114.162 79.5685H110.703V83.0281H114.162V79.5685Z" fill="#101828"/>
    <path d="M117.622 79.5685H114.162V83.0281H117.622V79.5685Z" fill="#101828"/>
    <path d="M24.2163 83.0269H20.7568V86.4862H24.2163V83.0269Z" fill="#101828"/>
    <path d="M27.6758 83.0269H24.2163V86.4862H27.6758V83.0269Z" fill="#101828"/>
    <path d="M31.1352 83.0269H27.6758V86.4862H31.1352V83.0269Z" fill="#101828"/>
    <path d="M34.5947 83.0269H31.1353V86.4862H34.5947V83.0269Z" fill="#101828"/>
    <path d="M48.4324 83.0269H44.9729V86.4862H48.4324V83.0269Z" fill="#101828"/>
    <path d="M51.8918 83.0269H48.4324V86.4862H51.8918V83.0269Z" fill="#101828"/>
    <path d="M58.8108 83.0269H55.3513V86.4862H58.8108V83.0269Z" fill="#101828"/>
    <path d="M65.7297 83.0269H62.2703V86.4862H65.7297V83.0269Z" fill="#101828"/>
    <path d="M72.6487 83.0269H69.1892V86.4862H72.6487V83.0269Z" fill="#101828"/>
    <path d="M76.1081 83.0269H72.6487V86.4862H76.1081V83.0269Z" fill="#101828"/>
    <path d="M83.0272 83.0269H79.5676V86.4862H83.0272V83.0269Z" fill="#101828"/>
    <path d="M89.946 83.0269H86.4866V86.4862H89.946V83.0269Z" fill="#101828"/>
    <path d="M93.4055 83.0269H89.946V86.4862H93.4055V83.0269Z" fill="#101828"/>
    <path d="M96.865 83.0269H93.4055V86.4862H96.865V83.0269Z" fill="#101828"/>
    <path d="M114.162 83.0269H110.703V86.4862H114.162V83.0269Z" fill="#101828"/>
    <path d="M117.622 83.0269H114.162V86.4862H117.622V83.0269Z" fill="#101828"/>
    <path d="M20.7569 86.4866H17.2974V89.946H20.7569V86.4866Z" fill="#101828"/>
    <path d="M24.2163 86.4866H20.7568V89.946H24.2163V86.4866Z" fill="#101828"/>
    <path d="M27.6758 86.4866H24.2163V89.946H27.6758V86.4866Z" fill="#101828"/>
    <path d="M34.5947 86.4866H31.1353V89.946H34.5947V86.4866Z" fill="#101828"/>
    <path d="M38.0539 86.4866H34.5945V89.946H38.0539V86.4866Z" fill="#101828"/>
    <path d="M44.9731 86.4866H41.5137V89.946H44.9731V86.4866Z" fill="#101828"/>
    <path d="M55.3513 86.4866H51.8918V89.946H55.3513V86.4866Z" fill="#101828"/>
    <path d="M69.1892 86.4866H65.7297V89.946H69.1892V86.4866Z" fill="#101828"/>
    <path d="M72.6487 86.4866H69.1892V89.946H72.6487V86.4866Z" fill="#101828"/>
    <path d="M76.1081 86.4866H72.6487V89.946H76.1081V86.4866Z" fill="#101828"/>
    <path d="M79.5676 86.4866H76.1082V89.946H79.5676V86.4866Z" fill="#101828"/>
    <path d="M83.0272 86.4866H79.5676V89.946H83.0272V86.4866Z" fill="#101828"/>
    <path d="M86.4864 86.4866H83.0271V89.946H86.4864V86.4866Z" fill="#101828"/>
    <path d="M96.865 86.4866H93.4055V89.946H96.865V86.4866Z" fill="#101828"/>
    <path d="M100.324 86.4866H96.865V89.946H100.324V86.4866Z" fill="#101828"/>
    <path d="M107.243 86.4866H103.784V89.946H107.243V86.4866Z" fill="#101828"/>
    <path d="M110.703 86.4866H107.243V89.946H110.703V86.4866Z" fill="#101828"/>
    <path d="M117.622 86.4866H114.162V89.946H117.622V86.4866Z" fill="#101828"/>
    <path d="M121.081 86.4866H117.622V89.946H121.081V86.4866Z" fill="#101828"/>
    <path d="M10.3784 89.9462H6.91895V93.4056H10.3784V89.9462Z" fill="#101828"/>
    <path d="M13.8379 89.9462H10.3784V93.4056H13.8379V89.9462Z" fill="#101828"/>
    <path d="M17.2973 89.9462H13.8379V93.4056H17.2973V89.9462Z" fill="#101828"/>
    <path d="M24.2163 89.9462H20.7568V93.4056H24.2163V89.9462Z" fill="#101828"/>
    <path d="M31.1352 89.9462H27.6758V93.4056H31.1352V89.9462Z" fill="#101828"/>
    <path d="M34.5947 89.9462H31.1353V93.4056H34.5947V89.9462Z" fill="#101828"/>
    <path d="M44.9731 89.9462H41.5137V93.4056H44.9731V89.9462Z" fill="#101828"/>
    <path d="M48.4324 89.9462H44.9729V93.4056H48.4324V89.9462Z" fill="#101828"/>
    <path d="M55.3513 89.9462H51.8918V93.4056H55.3513V89.9462Z" fill="#101828"/>
    <path d="M58.8108 89.9462H55.3513V93.4056H58.8108V89.9462Z" fill="#101828"/>
    <path d="M62.2703 89.9462H58.8108V93.4056H62.2703V89.9462Z" fill="#101828"/>
    <path d="M65.7297 89.9462H62.2703V93.4056H65.7297V89.9462Z" fill="#101828"/>
    <path d="M69.1892 89.9462H65.7297V93.4056H69.1892V89.9462Z" fill="#101828"/>
    <path d="M79.5676 89.9462H76.1082V93.4056H79.5676V89.9462Z" fill="#101828"/>
    <path d="M83.0272 89.9462H79.5676V93.4056H83.0272V89.9462Z" fill="#101828"/>
    <path d="M86.4864 89.9462H83.0271V93.4056H86.4864V89.9462Z" fill="#101828"/>
    <path d="M93.4055 89.9462H89.946V93.4056H93.4055V89.9462Z" fill="#101828"/>
    <path d="M96.865 89.9462H93.4055V93.4056H96.865V89.9462Z" fill="#101828"/>
    <path d="M100.324 89.9462H96.865V93.4056H100.324V89.9462Z" fill="#101828"/>
    <path d="M103.784 89.9462H100.324V93.4056H103.784V89.9462Z" fill="#101828"/>
    <path d="M107.243 89.9462H103.784V93.4056H107.243V89.9462Z" fill="#101828"/>
    <path d="M110.703 89.9462H107.243V93.4056H110.703V89.9462Z" fill="#101828"/>
    <path d="M117.622 89.9462H114.162V93.4056H117.622V89.9462Z" fill="#101828"/>
    <path d="M38.0539 93.4059H34.5945V96.8653H38.0539V93.4059Z" fill="#101828"/>
    <path d="M44.9731 93.4059H41.5137V96.8653H44.9731V93.4059Z" fill="#101828"/>
    <path d="M48.4324 93.4059H44.9729V96.8653H48.4324V93.4059Z" fill="#101828"/>
    <path d="M55.3513 93.4059H51.8918V96.8653H55.3513V93.4059Z" fill="#101828"/>
    <path d="M58.8108 93.4059H55.3513V96.8653H58.8108V93.4059Z" fill="#101828"/>
    <path d="M62.2703 93.4059H58.8108V96.8653H62.2703V93.4059Z" fill="#101828"/>
    <path d="M65.7297 93.4059H62.2703V96.8653H65.7297V93.4059Z" fill="#101828"/>
    <path d="M69.1892 93.4059H65.7297V96.8653H69.1892V93.4059Z" fill="#101828"/>
    <path d="M83.0272 93.4059H79.5676V96.8653H83.0272V93.4059Z" fill="#101828"/>
    <path d="M86.4864 93.4059H83.0271V96.8653H86.4864V93.4059Z" fill="#101828"/>
    <path d="M89.946 93.4059H86.4866V96.8653H89.946V93.4059Z" fill="#101828"/>
    <path d="M93.4055 93.4059H89.946V96.8653H93.4055V93.4059Z" fill="#101828"/>
    <path d="M107.243 93.4059H103.784V96.8653H107.243V93.4059Z" fill="#101828"/>
    <path d="M114.162 93.4059H110.703V96.8653H114.162V93.4059Z" fill="#101828"/>
    <path d="M38.0539 96.8655H34.5945V100.325H38.0539V96.8655Z" fill="#101828"/>
    <path d="M41.5137 96.8655H38.0542V100.325H41.5137V96.8655Z" fill="#101828"/>
    <path d="M44.9731 96.8655H41.5137V100.325H44.9731V96.8655Z" fill="#101828"/>
    <path d="M58.8108 96.8655H55.3513V100.325H58.8108V96.8655Z" fill="#101828"/>
    <path d="M62.2703 96.8655H58.8108V100.325H62.2703V96.8655Z" fill="#101828"/>
    <path d="M72.6487 96.8655H69.1892V100.325H72.6487V96.8655Z" fill="#101828"/>
    <path d="M93.4055 96.8655H89.946V100.325H93.4055V96.8655Z" fill="#101828"/>
    <path d="M100.324 96.8655H96.865V100.325H100.324V96.8655Z" fill="#101828"/>
    <path d="M107.243 96.8655H103.784V100.325H107.243V96.8655Z" fill="#101828"/>
    <path d="M110.703 96.8655H107.243V100.325H110.703V96.8655Z" fill="#101828"/>
    <path d="M48.4324 100.325H44.9729V103.785H48.4324V100.325Z" fill="#101828"/>
    <path d="M58.8108 100.325H55.3513V103.785H58.8108V100.325Z" fill="#101828"/>
    <path d="M62.2703 100.325H58.8108V103.785H62.2703V100.325Z" fill="#101828"/>
    <path d="M65.7297 100.325H62.2703V103.785H65.7297V100.325Z" fill="#101828"/>
    <path d="M76.1081 100.325H72.6487V103.785H76.1081V100.325Z" fill="#101828"/>
    <path d="M86.4864 100.325H83.0271V103.785H86.4864V100.325Z" fill="#101828"/>
    <path d="M93.4055 100.325H89.946V103.785H93.4055V100.325Z" fill="#101828"/>
    <path d="M107.243 100.325H103.784V103.785H107.243V100.325Z" fill="#101828"/>
    <path d="M121.081 100.325H117.622V103.785H121.081V100.325Z" fill="#101828"/>
    <path d="M38.0539 103.784H34.5945V107.243H38.0539V103.784Z" fill="#101828"/>
    <path d="M48.4324 103.784H44.9729V107.243H48.4324V103.784Z" fill="#101828"/>
    <path d="M51.8918 103.784H48.4324V107.243H51.8918V103.784Z" fill="#101828"/>
    <path d="M55.3513 103.784H51.8918V107.243H55.3513V103.784Z" fill="#101828"/>
    <path d="M58.8108 103.784H55.3513V107.243H58.8108V103.784Z" fill="#101828"/>
    <path d="M65.7297 103.784H62.2703V107.243H65.7297V103.784Z" fill="#101828"/>
    <path d="M76.1081 103.784H72.6487V107.243H76.1081V103.784Z" fill="#101828"/>
    <path d="M86.4864 103.784H83.0271V107.243H86.4864V103.784Z" fill="#101828"/>
    <path d="M93.4055 103.784H89.946V107.243H93.4055V103.784Z" fill="#101828"/>
    <path d="M96.865 103.784H93.4055V107.243H96.865V103.784Z" fill="#101828"/>
    <path d="M100.324 103.784H96.865V107.243H100.324V103.784Z" fill="#101828"/>
    <path d="M103.784 103.784H100.324V107.243H103.784V103.784Z" fill="#101828"/>
    <path d="M107.243 103.784H103.784V107.243H107.243V103.784Z" fill="#101828"/>
    <path d="M110.703 103.784H107.243V107.243H110.703V103.784Z" fill="#101828"/>
    <path d="M121.081 103.784H117.622V107.243H121.081V103.784Z" fill="#101828"/>
    <path d="M41.5137 107.243H38.0542V110.703H41.5137V107.243Z" fill="#101828"/>
    <path d="M44.9731 107.243H41.5137V110.703H44.9731V107.243Z" fill="#101828"/>
    <path d="M51.8918 107.243H48.4324V110.703H51.8918V107.243Z" fill="#101828"/>
    <path d="M55.3513 107.243H51.8918V110.703H55.3513V107.243Z" fill="#101828"/>
    <path d="M72.6487 107.243H69.1892V110.703H72.6487V107.243Z" fill="#101828"/>
    <path d="M76.1081 107.243H72.6487V110.703H76.1081V107.243Z" fill="#101828"/>
    <path d="M79.5676 107.243H76.1082V110.703H79.5676V107.243Z" fill="#101828"/>
    <path d="M89.946 107.243H86.4866V110.703H89.946V107.243Z" fill="#101828"/>
    <path d="M100.324 107.243H96.865V110.703H100.324V107.243Z" fill="#101828"/>
    <path d="M103.784 107.243H100.324V110.703H103.784V107.243Z" fill="#101828"/>
    <path d="M107.243 107.243H103.784V110.703H107.243V107.243Z" fill="#101828"/>
    <path d="M110.703 107.243H107.243V110.703H110.703V107.243Z" fill="#101828"/>
    <path d="M114.162 107.243H110.703V110.703H114.162V107.243Z" fill="#101828"/>
    <path d="M117.622 107.243H114.162V110.703H117.622V107.243Z" fill="#101828"/>
    <path d="M41.5137 110.703H38.0542V114.162H41.5137V110.703Z" fill="#101828"/>
    <path d="M51.8918 110.703H48.4324V114.162H51.8918V110.703Z" fill="#101828"/>
    <path d="M58.8108 110.703H55.3513V114.162H58.8108V110.703Z" fill="#101828"/>
    <path d="M62.2703 110.703H58.8108V114.162H62.2703V110.703Z" fill="#101828"/>
    <path d="M72.6487 110.703H69.1892V114.162H72.6487V110.703Z" fill="#101828"/>
    <path d="M79.5676 110.703H76.1082V114.162H79.5676V110.703Z" fill="#101828"/>
    <path d="M83.0272 110.703H79.5676V114.162H83.0272V110.703Z" fill="#101828"/>
    <path d="M96.865 110.703H93.4055V114.162H96.865V110.703Z" fill="#101828"/>
    <path d="M100.324 110.703H96.865V114.162H100.324V110.703Z" fill="#101828"/>
    <path d="M103.784 110.703H100.324V114.162H103.784V110.703Z" fill="#101828"/>
    <path d="M107.243 110.703H103.784V114.162H107.243V110.703Z" fill="#101828"/>
    <path d="M110.703 110.703H107.243V114.162H110.703V110.703Z" fill="#101828"/>
    <path d="M48.4324 114.163H44.9729V117.622H48.4324V114.163Z" fill="#101828"/>
    <path d="M51.8918 114.163H48.4324V117.622H51.8918V114.163Z" fill="#101828"/>
    <path d="M55.3513 114.163H51.8918V117.622H55.3513V114.163Z" fill="#101828"/>
    <path d="M62.2703 114.163H58.8108V117.622H62.2703V114.163Z" fill="#101828"/>
    <path d="M65.7297 114.163H62.2703V117.622H65.7297V114.163Z" fill="#101828"/>
    <path d="M69.1892 114.163H65.7297V117.622H69.1892V114.163Z" fill="#101828"/>
    <path d="M72.6487 114.163H69.1892V117.622H72.6487V114.163Z" fill="#101828"/>
    <path d="M83.0272 114.163H79.5676V117.622H83.0272V114.163Z" fill="#101828"/>
    <path d="M89.946 114.163H86.4866V117.622H89.946V114.163Z" fill="#101828"/>
    <path d="M93.4055 114.163H89.946V117.622H93.4055V114.163Z" fill="#101828"/>
    <path d="M100.324 114.163H96.865V117.622H100.324V114.163Z" fill="#101828"/>
    <path d="M38.0539 117.622H34.5945V121.082H38.0539V117.622Z" fill="#101828"/>
    <path d="M44.9731 117.622H41.5137V121.082H44.9731V117.622Z" fill="#101828"/>
    <path d="M69.1892 117.622H65.7297V121.082H69.1892V117.622Z" fill="#101828"/>
    <path d="M76.1081 117.622H72.6487V121.082H76.1081V117.622Z" fill="#101828"/>
    <path d="M79.5676 117.622H76.1082V121.082H79.5676V117.622Z" fill="#101828"/>
    <path d="M83.0272 117.622H79.5676V121.082H83.0272V117.622Z" fill="#101828"/>
    <path d="M86.4864 117.622H83.0271V121.082H86.4864V117.622Z" fill="#101828"/>
    <path d="M89.946 117.622H86.4866V121.082H89.946V117.622Z" fill="#101828"/>
    <path d="M93.4055 117.622H89.946V121.082H93.4055V117.622Z" fill="#101828"/>
    <path d="M96.865 117.622H93.4055V121.082H96.865V117.622Z" fill="#101828"/>
    <path d="M100.324 117.622H96.865V121.082H100.324V117.622Z" fill="#101828"/>
    <path d="M110.703 117.622H107.243V121.082H110.703V117.622Z" fill="#101828"/>
    <path d="M121.081 117.622H117.622V121.082H121.081V117.622Z" fill="#101828"/>
    <path d="M27.5027 6.91931H10.5514H6.91895V10.5517V27.5031V31.1355H10.5514H27.5027H31.1352V27.5031V10.5517V6.91931H27.5027ZM27.5027 27.5031H10.5514V10.5517H27.5027V27.5031Z" fill="#101828"/>
    <path d="M117.449 6.91931H100.497H96.865V10.5517V27.5031V31.1355H100.497H117.449H121.081V27.5031V10.5517V6.91931H117.449ZM117.449 27.5031H100.497V10.5517H117.449V27.5031Z" fill="#101828"/>
    <path d="M27.5027 96.8655H10.5514H6.91895V100.498V117.449V121.082H10.5514H27.5027H31.1352V117.449V100.498V96.8655H27.5027ZM27.5027 117.449H10.5514V100.498H27.5027V117.449Z" fill="#101828"/>
    <path d="M24.2163 13.8386H13.8379V24.217H24.2163V13.8386Z" fill="#101828"/>
    <path d="M114.162 13.8386H103.784V24.217H114.162V13.8386Z" fill="#101828"/>
    <path d="M24.2163 103.784H13.8379V114.162H24.2163V103.784Z" fill="#101828"/>
  </g>
  <defs>
    <clipPath id="clip0_6293_2551">
      <rect width="128" height="128" fill="white"/>
    </clipPath>
  </defs>
</svg>