<svg xmlns="http://www.w3.org/2000/svg">
  <symbol id="check" viewBox="0 0 28 28">
    <rect width="28" height="28" rx="14" fill="#FFFAEB"/>
    <path fill-rule="evenodd" clipRule="evenodd" d="M19.9458 8.62169L11.5925 16.6834L9.37583 14.315C8.9675 13.93 8.32583 13.9067 7.85916 14.2334C7.40416 14.5717 7.27583 15.1667 7.55583 15.645L10.1808 19.915C10.4375 20.3117 10.8808 20.5567 11.3825 20.5567C11.8608 20.5567 12.3158 20.3117 12.5725 19.915C12.9925 19.3667 21.0075 9.81169 21.0075 9.81169C22.0575 8.73836 20.7858 7.79336 19.9458 8.61002V8.62169Z" fill="#FE8B45"/>
  </symbol>
  <symbol id="check-success" viewBox="0 0 56 56" fill="none" xmlns="http://www.w3.org/2000/svg">
    <rect width="56" height="56" rx="28" fill="#D1FADF"/>
    <path d="M39.6663 26.9267V28C39.6649 30.5158 38.8503 32.9638 37.3439 34.9788C35.8375 36.9938 33.7202 38.4679 31.3076 39.1812C28.895 39.8945 26.3165 39.8089 23.9566 38.937C21.5966 38.0652 19.5818 36.4538 18.2125 34.3433C16.8432 32.2327 16.1928 29.7361 16.3583 27.2257C16.5238 24.7153 17.4964 22.3257 19.131 20.4133C20.7656 18.5008 22.9746 17.168 25.4286 16.6135C27.8825 16.0591 30.45 16.3127 32.748 17.3367M39.6663 18.6667L27.9997 30.345L24.4997 26.845" stroke="#039855" stroke-width="2.33333" stroke-linecap="round" stroke-linejoin="round"/>
  </symbol>

  <symbol id="chevron-down" viewBox="0 0 20 20" fill="none">
    <path d="M5 7.5L10 12.5L15 7.5" stroke-width="2" stroke-linecap="round" stroke-linejoin="round"/>
  </symbol>

  <symbol id="chevron-up" viewBox="0 0 20 20" fill="none">
    <path d="M15 12.5L10 7.5L5 12.5" stroke-width="1.67" stroke-linecap="round" stroke-linejoin="round"/>
  </symbol>

  <symbol id="select-check" viewBox="0 0 20 20" fill="none">
    <path d="M16.6667 5L7.50001 14.1667L3.33334 10" stroke="#FE6B13" stroke-width="1.66667" stroke-linecap="round" stroke-linejoin="round"/>
  </symbol>

  <symbol id="loader" viewBox="0 0 16 16">
    <g clip-path="url(#clip0_6112_11585)">
      <path d="M8.00004 1.3335V4.00016M8.00004 12.0002V14.6668M3.28671 3.28683L5.17337 5.1735M10.8267 10.8268L12.7134 12.7135M1.33337 8.00016H4.00004M12 8.00016H14.6667M3.28671 12.7135L5.17337 10.8268M10.8267 5.1735L12.7134 3.28683" stroke="#FE6B13" stroke-linecap="round" stroke-linejoin="round"/>
    </g>
    <defs> 
      <clipPath id="clip0_6112_11585">
        <rect width="16" height="16" fill="white"/>
      </clipPath>
    </defs>
  </symbol>

  <symbol id="success" viewBox="0 0 16 16" fill="white">
    <g clip-path="url(#clip0_6112_11283)">
      <path d="M14.6666 7.38674V8.00007C14.6658 9.43769 14.2003 10.8365 13.3395 11.988C12.4787 13.1394 11.2688 13.9817 9.89016 14.3893C8.51154 14.797 7.03809 14.748 5.68957 14.2498C4.34104 13.7516 3.18969 12.8308 2.40723 11.6248C1.62476 10.4188 1.25311 8.99211 1.3477 7.55761C1.44229 6.12312 1.99806 4.75762 2.93211 3.66479C3.86615 2.57195 5.12844 1.81033 6.53071 1.4935C7.93298 1.17668 9.4001 1.32163 10.7133 1.90674M14.6666 2.66674L7.99992 9.34007L5.99992 7.34007" stroke="#12B76A" stroke-linecap="round" stroke-linejoin="round"/>
    </g>
    <defs>
      <clipPath id="clip0_6112_11283">
        <rect width="16" height="16" fill="white"/>
      </clipPath>
    </defs>
  </symbol>

  <symbol id="eye" viewBox="0 0 16 16" fill="none">
    <path d="M0.666504 7.99984C0.666504 7.99984 3.33317 2.6665 7.99984 2.6665C12.6665 2.6665 15.3332 7.99984 15.3332 7.99984C15.3332 7.99984 12.6665 13.3332 7.99984 13.3332C3.33317 13.3332 0.666504 7.99984 0.666504 7.99984Z" stroke="#344054" stroke-linecap="round" stroke-linejoin="round"/>
    <path d="M7.99984 9.99984C9.10441 9.99984 9.99984 9.10441 9.99984 7.99984C9.99984 6.89527 9.10441 5.99984 7.99984 5.99984C6.89527 5.99984 5.99984 6.89527 5.99984 7.99984C5.99984 9.10441 6.89527 9.99984 7.99984 9.99984Z" stroke="#344054" stroke-linecap="round" stroke-linejoin="round"/>
  </symbol>

  <symbol id="eye-off" viewBox="0 0 16 16" fill="none">
    <g clip-path="url(#clip0_6112_10949)">
      <path d="M6.59984 2.8265C7.05872 2.71909 7.52855 2.6654 7.99984 2.6665C12.6665 2.6665 15.3332 7.99984 15.3332 7.99984C14.9285 8.75691 14.4459 9.46966 13.8932 10.1265M9.41317 9.41317C9.23007 9.60967 9.00927 9.76727 8.76394 9.87659C8.51861 9.9859 8.25377 10.0447 7.98523 10.0494C7.71669 10.0542 7.44995 10.0048 7.20091 9.90416C6.95188 9.80357 6.72565 9.65386 6.53573 9.46394C6.34582 9.27402 6.1961 9.0478 6.09551 8.79876C5.99492 8.54973 5.94552 8.28298 5.95026 8.01444C5.955 7.7459 6.01378 7.48107 6.12309 7.23574C6.2324 6.9904 6.39001 6.7696 6.5865 6.5865M0.666504 0.666504L15.3332 15.3332M11.9598 11.9598C10.8202 12.8285 9.43258 13.3097 7.99984 13.3332C3.33317 13.3332 0.666504 7.99984 0.666504 7.99984C1.49576 6.45443 2.64593 5.10424 4.03984 4.03984L11.9598 11.9598Z" stroke="#344054" stroke-linecap="round" stroke-linejoin="round"/>
    </g>
    <defs>
      <clipPath id="clip0_6112_10949">
        <rect width="16" height="16" fill="white"/>
      </clipPath>
    </defs>
  </symbol>

  <symbol id="arrow-left" viewBox="0 0 24 24" fill="none">
    <path d="M19 12H5M5 12L12 19M5 12L12 5" stroke="#101828" stroke-width="2" stroke-linecap="round" stroke-linejoin="round"/>
  </symbol>
  
  <symbol id="document" viewBox="0 0 20 20" fill="none">
    <path d="M10.8333 1.66666H5C4.55797 1.66666 4.13405 1.84225 3.82149 2.15481C3.50893 2.46737 3.33333 2.8913 3.33333 3.33332V16.6667C3.33333 17.1087 3.50893 17.5326 3.82149 17.8452C4.13405 18.1577 4.55797 18.3333 5 18.3333H15C15.442 18.3333 15.8659 18.1577 16.1785 17.8452C16.4911 17.5326 16.6667 17.1087 16.6667 16.6667V7.49999M10.8333 1.66666L16.6667 7.49999M10.8333 1.66666V7.49999H16.6667" stroke="white" stroke-width="1.67" stroke-linecap="round" stroke-linejoin="round"/>
  </symbol>
  <symbol id="inbox" viewBox="0 0 24 24" fill="none">
    <path d="M22 12H16L14 15H10L8 12H2M22 12V18C22 18.5304 21.7893 19.0391 21.4142 19.4142C21.0391 19.7893 20.5304 20 20 20H4C3.46957 20 2.96086 19.7893 2.58579 19.4142C2.21071 19.0391 2 18.5304 2 18V12M22 12L18.55 5.11C18.3844 4.77679 18.1292 4.49637 17.813 4.30028C17.4967 4.10419 17.1321 4.0002 16.76 4H7.24C6.86792 4.0002 6.50326 4.10419 6.18704 4.30028C5.87083 4.49637 5.61558 4.77679 5.45 5.11L2 12" stroke-width="2" stroke-linecap="round" stroke-linejoin="round"/>
  </symbol>
  <symbol id="upload" viewBox="0 0 24 24" fill="none">
    <path d="M21 15V19C21 19.5304 20.7893 20.0391 20.4142 20.4142C20.0391 20.7893 19.5304 21 19 21H5C4.46957 21 3.96086 20.7893 3.58579 20.4142C3.21071 20.0391 3 19.5304 3 19V15M17 8L12 3M12 3L7 8M12 3V15" stroke-width="2" stroke-linecap="round" stroke-linejoin="round"/>
  </symbol>
  <symbol id="bell" viewBox="0 0 24 24" fill="none">
    <path d="M13.73 21C13.5542 21.3031 13.3018 21.5547 12.9982 21.7295C12.6946 21.9044 12.3504 21.9965 12 21.9965C11.6496 21.9965 11.3054 21.9044 11.0018 21.7295C10.6982 21.5547 10.4458 21.3031 10.27 21M18 8C18 6.4087 17.3679 4.88258 16.2426 3.75736C15.1174 2.63214 13.5913 2 12 2C10.4087 2 8.88258 2.63214 7.75736 3.75736C6.63214 4.88258 6 6.4087 6 8C6 15 3 17 3 17H21C21 17 18 15 18 8Z" stroke-width="2" stroke-linecap="round" stroke-linejoin="round"/>
  </symbol>
  <symbol id="folder" viewBox="0 0 24 24" fill="none">
    <path d="M22 19C22 19.5304 21.7893 20.0391 21.4142 20.4142C21.0391 20.7893 20.5304 21 20 21H4C3.46957 21 2.96086 20.7893 2.58579 20.4142C2.21071 20.0391 2 19.5304 2 19V5C2 4.46957 2.21071 3.96086 2.58579 3.58579C2.96086 3.21071 3.46957 3 4 3H9L11 6H20C20.5304 6 21.0391 6.21071 21.4142 6.58579C21.7893 6.96086 22 7.46957 22 8V19Z" stroke-width="2" stroke-linecap="round" stroke-linejoin="round"/>
  </symbol>
  <symbol id="link-2" viewBox="0 0 24 24" fill="none">
    <path d="M15 7H18C18.6566 7 19.3068 7.12933 19.9134 7.3806C20.52 7.63188 21.0712 8.00017 21.5355 8.46447C21.9998 8.92876 22.3681 9.47996 22.6194 10.0866C22.8707 10.6932 23 11.3434 23 12C23 12.6566 22.8707 13.3068 22.6194 13.9134C22.3681 14.52 21.9998 15.0712 21.5355 15.5355C21.0712 15.9998 20.52 16.3681 19.9134 16.6194C19.3068 16.8707 18.6566 17 18 17H15M9 17H6C5.34339 17 4.69321 16.8707 4.08658 16.6194C3.47995 16.3681 2.92876 15.9998 2.46447 15.5355C1.52678 14.5979 1 13.3261 1 12C1 10.6739 1.52678 9.40215 2.46447 8.46447C3.40215 7.52678 4.67392 7 6 7H9M8 12H16" stroke-width="2" stroke-linecap="round" stroke-linejoin="round"/>
  </symbol>
  <symbol id="file-text" viewBox="0 0 24 24" fill="none">
    <path d="M14 2H6C5.46957 2 4.96086 2.21071 4.58579 2.58579C4.21071 2.96086 4 3.46957 4 4V20C4 20.5304 4.21071 21.0391 4.58579 21.4142C4.96086 21.7893 5.46957 22 6 22H18C18.5304 22 19.0391 21.7893 19.4142 21.4142C19.7893 21.0391 20 20.5304 20 20V8M14 2L20 8M14 2V8H20M16 13H8M16 17H8M10 9H8" stroke-width="2" stroke-linecap="round" stroke-linejoin="round"/>
  </symbol>
  <symbol id="archive" viewBox="0 0 24 24" fill="none">
    <path d="M21 8V21H3V8M10 12H14M1 3H23V8H1V3Z" stroke-linecap="round" stroke-linejoin="round"/>
  </symbol>
  <symbol id="users" viewBox="0 0 24 24" fill="none">
    <path d="M17 21V19C17 17.9391 16.5786 16.9217 15.8284 16.1716C15.0783 15.4214 14.0609 15 13 15H5C3.93913 15 2.92172 15.4214 2.17157 16.1716C1.42143 16.9217 1 17.9391 1 19V21M23 21V19C22.9993 18.1137 22.7044 17.2528 22.1614 16.5523C21.6184 15.8519 20.8581 15.3516 20 15.13M16 3.13C16.8604 3.3503 17.623 3.8507 18.1676 4.55231C18.7122 5.25392 19.0078 6.11683 19.0078 7.005C19.0078 7.89317 18.7122 8.75608 18.1676 9.45769C17.623 10.1593 16.8604 10.6597 16 10.88M13 7C13 9.20914 11.2091 11 9 11C6.79086 11 5 9.20914 5 7C5 4.79086 6.79086 3 9 3C11.2091 3 13 4.79086 13 7Z" stroke-width="2" stroke-linecap="round" stroke-linejoin="round"/>
  </symbol>
  <symbol id="search" viewBox="0 0 20 20" fill="none" >
    <path d="M17.5 17.5L13.875 13.875M15.8333 9.16667C15.8333 12.8486 12.8486 15.8333 9.16667 15.8333C5.48477 15.8333 2.5 12.8486 2.5 9.16667C2.5 5.48477 5.48477 2.5 9.16667 2.5C12.8486 2.5 15.8333 5.48477 15.8333 9.16667Z" stroke="#667085" stroke-width="1.66667" stroke-linecap="round" stroke-linejoin="round"/>
  </symbol>

  <symbol id="folder-plus" width="20" height="20" viewBox="0 0 20 20" fill="none" xmlns="http://www.w3.org/2000/svg">
    <path d="M9.99999 9.16667V14.1667M7.49999 11.6667H12.5M18.3333 15.8333C18.3333 16.2754 18.1577 16.6993 17.8452 17.0118C17.5326 17.3244 17.1087 17.5 16.6667 17.5H3.33332C2.8913 17.5 2.46737 17.3244 2.15481 17.0118C1.84225 16.6993 1.66666 16.2754 1.66666 15.8333V4.16667C1.66666 3.72464 1.84225 3.30072 2.15481 2.98816C2.46737 2.67559 2.8913 2.5 3.33332 2.5H7.49999L9.16666 5H16.6667C17.1087 5 17.5326 5.17559 17.8452 5.48816C18.1577 5.80072 18.3333 6.22464 18.3333 6.66667V15.8333Z" stroke="#FE6B13" stroke-width="2" stroke-linecap="round" stroke-linejoin="round"/>
  </symbol>

  <symbol id="back" width="16" height="16" viewBox="0 0 16 16" fill="none" xmlns="http://www.w3.org/2000/svg">
    <path d="M15 8H1M1 8L8 15M1 8L8 1" stroke="#101828" stroke-width="2" stroke-linecap="round" stroke-linejoin="round"/>
  </symbol>

  <symbol id="help" viewBox="0 0 30 30" fill="none">
    <path d="M11.3625 11.25C11.6564 10.4146 12.2364 9.71013 12.9999 9.26142C13.7634 8.8127 14.6611 8.64867 15.534 8.79839C16.4068 8.94811 17.1985 9.40191 17.7688 10.0794C18.3392 10.7569 18.6513 11.6144 18.65 12.5C18.65 15 14.9 16.25 14.9 16.25M15 21.25H15.0125M27.5 15C27.5 21.9036 21.9036 27.5 15 27.5C8.09644 27.5 2.5 21.9036 2.5 15C2.5 8.09644 8.09644 2.5 15 2.5C21.9036 2.5 27.5 8.09644 27.5 15Z" stroke="#667085" stroke-width="2" stroke-linecap="round" stroke-linejoin="round"/>
  </symbol>

  <symbol id="list" viewBox="0 0 20 20" fill="none">
    <path d="M6.66667 5H17.5M6.66667 10H17.5M6.66667 15H17.5M2.5 5H2.50833M2.5 10H2.50833M2.5 15H2.50833" stroke-width="1.67" stroke-linecap="round" stroke-linejoin="round"/>
  </symbol>

  <symbol id="grid" viewBox="0 0 20 20" fill="none" >
    <path d="M8.33333 2.5H2.5V8.33333H8.33333V2.5Z" stroke-width="1.67" stroke-linecap="round" stroke-linejoin="round"/>
    <path d="M17.5 2.5H11.6667V8.33333H17.5V2.5Z" stroke-width="1.67" stroke-linecap="round" stroke-linejoin="round"/>
    <path d="M17.5 11.6667H11.6667V17.5H17.5V11.6667Z" stroke-width="1.67" stroke-linecap="round" stroke-linejoin="round"/>
    <path d="M8.33333 11.6667H2.5V17.5H8.33333V11.6667Z" stroke-width="1.67" stroke-linecap="round" stroke-linejoin="round"/>
  </symbol>

  <symbol id="filter" viewBox="0 0 20 20" fill="none">
    <g clip-path="url(#clip0_6857_5520)">
    <path d="M3.33334 17.5V11.6667M3.33334 8.33333V2.5M10 17.5V10M10 6.66667V2.5M16.6667 17.5V13.3333M16.6667 10V2.5M0.833344 11.6667H5.83334M7.50001 6.66667H12.5M14.1667 13.3333H19.1667" stroke-width="1.67" stroke-linecap="round" stroke-linejoin="round"/>
    </g>
    <defs>
    <clipPath id="clip0_6857_5520">
    <rect width="20" height="20" fill="white"/>
    </clipPath>
    </defs>
  </symbol>

  <symbol id="more"  viewBox="0 0 16 4" fill="none" >
    <path d="M8.00016 2.83335C8.4604 2.83335 8.8335 2.46026 8.8335 2.00002C8.8335 1.53978 8.4604 1.16669 8.00016 1.16669C7.53993 1.16669 7.16683 1.53978 7.16683 2.00002C7.16683 2.46026 7.53993 2.83335 8.00016 2.83335Z" stroke="#98A2B3" stroke-width="2" stroke-linecap="round" stroke-linejoin="round"/>
    <path d="M13.8335 2.83335C14.2937 2.83335 14.6668 2.46026 14.6668 2.00002C14.6668 1.53978 14.2937 1.16669 13.8335 1.16669C13.3733 1.16669 13.0002 1.53978 13.0002 2.00002C13.0002 2.46026 13.3733 2.83335 13.8335 2.83335Z" stroke="#98A2B3" stroke-width="2" stroke-linecap="round" stroke-linejoin="round"/>
    <path d="M2.16683 2.83335C2.62707 2.83335 3.00016 2.46026 3.00016 2.00002C3.00016 1.53978 2.62707 1.16669 2.16683 1.16669C1.70659 1.16669 1.3335 1.53978 1.3335 2.00002C1.3335 2.46026 1.70659 2.83335 2.16683 2.83335Z" stroke="#98A2B3" stroke-width="2" stroke-linecap="round" stroke-linejoin="round"/>
  </symbol>

  <symbol id="chevron-right" viewBox="0 0 8 12" fill="none" >
    <path d="M1.5 11L6.5 6L1.5 1" stroke="#98A2B3" stroke-width="2" stroke-linecap="round" stroke-linejoin="round"/>
  </symbol>

  <svg id="mail" viewBox="0 0 20 20" fill="none">
    <path d="M18.3337 4.99992C18.3337 4.08325 17.5837 3.33325 16.667 3.33325H3.33366C2.41699 3.33325 1.66699 4.08325 1.66699 4.99992M18.3337 4.99992V14.9999C18.3337 15.9166 17.5837 16.6666 16.667 16.6666H3.33366C2.41699 16.6666 1.66699 15.9166 1.66699 14.9999V4.99992M18.3337 4.99992L10.0003 10.8333L1.66699 4.99992" stroke="#667085" stroke-width="1.66667" stroke-linecap="round" stroke-linejoin="round"/>
  </svg>
</svg>